<?xml version="1.0" encoding="utf-8"?>
<!-- Generator: Adobe Illustrator 19.2.1, SVG Export Plug-In . SVG Version: 6.00 Build 0)  -->
<svg version="1.1" id="Layer_1" xmlns="http://www.w3.org/2000/svg" xmlns:xlink="http://www.w3.org/1999/xlink" x="0px" y="0px"
	 viewBox="0 0 720 720" style="enable-background:new 0 0 720 720;" xml:space="preserve">
<style type="text/css">
	.st0{fill:#FFD710;}
</style>
<g id="DfINTa.tif_1_">
	<g>
		<path class="st0" d="M465,88.1c11.4,0,22.9,0,34.3,0c27,6.6,53.4,15.1,73.8,35.2c7.4,7.3,14.2,8.8,23.4,5.3
			c23.6-8.8,47.4-17.1,71.7-25.9c-8.8,29.1-28.7,50.4-52.6,68.9c0.6,1.1,1.2,2.3,1.8,3.4c22.7-6.2,45.5-12.3,68.2-18.5
			c0.9,1.1,1.8,2.1,2.8,3.2c-20,19.5-40.2,38.8-59.8,58.7c-3.8,3.9-7.8,9.8-7.8,14.8c-0.1,60.2-11,118.2-36.6,172.9
			c-59,126.1-155.7,203.4-294.3,226.1c-12.9,2.1-26,3.6-39,5.3c-151.4,6.1-232.4-60.4-231.9-61.8c72.4,5.7,137.8-11.9,195.5-57.2
			c-28.7-2.6-54.4-12-76.8-29.1c-22.6-17.2-39.3-38.9-47.8-68.2c19.6,0,37.5,0,55.4,0c0.3-1.2,0.5-2.5,0.8-3.7
			c-30.9-8.1-56.5-24.2-75.9-49.2c-19.2-24.8-29.7-52.7-28.7-85.6c10.4,4,19.2,8,28.4,10.5c8.7,2.4,17.8,3.1,26.8,4.5
			c-57.1-57.9-73.3-139.8-34.9-182.3C136.7,202,230.3,250.5,346,258c-0.6-4.3-0.9-6.4-1.2-8.6c-7.1-51.5,8.9-94.3,48.1-128.5
			C413.7,102.7,438.6,93.9,465,88.1z"/>
	</g>
</g>
</svg>
