<?xml version="1.0" encoding="utf-8"?>
<!-- Generator: Adobe Illustrator 19.2.1, SVG Export Plug-In . SVG Version: 6.00 Build 0)  -->
<svg version="1.1" id="Layer_1" xmlns="http://www.w3.org/2000/svg" xmlns:xlink="http://www.w3.org/1999/xlink" x="0px" y="0px"
	 viewBox="0 0 720 720" style="enable-background:new 0 0 720 720;" xml:space="preserve">
<style type="text/css">
	.st0{fill:#FFD710;}
</style>
<path class="st0" d="M65.7,586.9c0-153.9,0-307.7,0-461.6c0.4-2.1,0.9-4.1,1.3-6.2c4.6-27.8,26.4-50.1,54.2-55.3
	c2.6-0.5,5.2-0.9,7.9-1.3c153.9,0,307.7,0,461.6,0c0.6,0.1,1.2,0.4,1.7,0.4c17.9,2,32.9,9.7,44.7,23.4c8.7,10.1,14.1,21.7,15.6,35
	c0,0.3,0.2,0.5,0.4,0.8c0,156,0,312,0,468c-0.2,1.5-0.5,3-0.8,4.5c-5.3,27.3-25.7,48.1-52.9,53.9c-2,0.4-4,0.8-6,1.2
	c-155.7,0-311.4,0-467.1,0c-1.4-0.3-2.8-0.6-4.2-0.9c-29.2-5-52.1-29.2-55.5-58.7C66.4,589.1,66,588,65.7,586.9z M534.6,311.2
	c4.4,17.6,6.5,35.1,5.7,52.9c-0.8,17.8-4.1,35-9.9,51.8c-5.9,16.9-14.1,32.5-24.7,46.9c-10.5,14.4-23,27-37.2,37.8
	c-14.2,10.7-29.6,19.1-46.3,25.3c-16.8,6.1-34.1,9.8-51.9,10.8c-32.3,1.8-63-4.4-91.9-19c-30.3-15.4-54.7-37.4-72.4-66.5
	c-26.6-43.6-33.3-90.4-21.3-139.9c-4.9-0.5-49.1-0.3-50.9,0.3c0,0.9,0,1.8,0,2.7c0,81.2,0,162.4,0,243.6c0,1.2,0,2.4,0.1,3.7
	c0.7,9,6.8,16.7,15.4,19.5c3,1,6.1,1.1,9.3,1.1c134,0,268.1,0,402.1,0c0.8,0,1.5,0,2.3,0c7.2-0.2,13.2-3,17.7-8.7
	c3.4-4.3,4.8-9.2,4.8-14.7c0-48.4,0-96.8,0-145.2c0-33.1,0-66.2,0-99.3c0-1,0-1.9,0-3C568.5,311.2,551.7,311.2,534.6,311.2z
	 M359.7,469.2c62.3,0,112.9-50.4,112.9-112.7c0.1-62.5-50.5-113.2-112.9-113.2c-63.3,0.1-113,51.6-112.9,112.9
	C247,418.8,297.3,469.2,359.7,469.2z M585.6,187c0-11.2,0-22.3,0-33.5c0-0.2,0-0.3,0-0.5c-0.1-12.7-9.9-22.6-22.5-22.6
	c-22.6-0.1-45.3-0.1-67.9,0c-12.5,0-22.4,10-22.5,22.5c-0.1,22.6-0.1,45.3,0,67.9c0,12.5,10,22.5,22.4,22.5c22.7,0.1,45.4,0,68.1,0
	c1.9,0,3.8-0.3,5.7-0.7c9.8-2.6,16.6-11.4,16.7-21.6C585.6,209.7,585.6,198.3,585.6,187z"/>
</svg>
