<?xml version="1.0" encoding="utf-8"?>
<!-- Generator: Adobe Illustrator 19.2.1, SVG Export Plug-In . SVG Version: 6.00 Build 0)  -->
<svg version="1.1" id="Layer_1" xmlns="http://www.w3.org/2000/svg" xmlns:xlink="http://www.w3.org/1999/xlink" x="0px" y="0px"
	 viewBox="0 0 720 720" style="enable-background:new 0 0 720 720;" xml:space="preserve">
<style type="text/css">
	.st0{fill:#FFD710;}
</style>
<g id="_x34_EJu63.tif_8_">
	<g>
		<path class="st0" d="M292.3,674.6c0.1-1.8,0.2-3.6,0.2-5.5c0-99.8,0-199.6,0-299.3c0-2.1,0-4.2,0-7c-26.1,0-51.7,0-77.7,0
			c-0.1-2.2-0.3-3.8-0.3-5.4c0-32,0.1-64.1-0.1-96.1c0-5,1.6-6,6.2-6c21.9,0.2,43.8,0,65.7,0.2c4.7,0,6.2-1.2,6.2-6.1
			c0-28.5,0.1-57.1,0.9-85.6c0.5-19,4.4-37.6,11.9-55.2c10.2-23.6,27.7-39.7,52-48.3c19.5-6.9,39.7-9.2,60.2-9.4
			c28.1-0.2,56.1-0.1,84.2-0.1c0.8,0,1.6,0.1,2.9,0.2c0,35.5,0,70.9,0,106.9c-2,0.1-3.9,0.3-5.8,0.3c-18.8,0.2-37.5,0.1-56.3,0.5
			c-5.1,0.1-10.3,1.1-15.1,2.6c-10.8,3.2-16.8,11.2-17.2,22c-0.9,22.9-0.8,45.8-1.2,68.7c-0.1,4.2,2.8,3.3,5.1,3.3
			c28.2,0,56.4,0,84.7,0c2,0,3.9,0,6.8,0c-3.8,36-7.5,71.4-11.3,107.2c-28.4,0-56.4,0-85.2,0c0,2.7,0,5,0,7.2
			c0,99.4-0.1,198.9-0.1,298.3c0,2.2-0.1,4.3-0.1,6.5C370,674.6,331.2,674.6,292.3,674.6z"/>
	</g>
</g>
</svg>
