<?xml version="1.0" encoding="utf-8"?>
<!-- Generator: Adobe Illustrator 19.2.1, SVG Export Plug-In . SVG Version: 6.00 Build 0)  -->
<svg version="1.1" id="Layer_1" xmlns="http://www.w3.org/2000/svg" xmlns:xlink="http://www.w3.org/1999/xlink" x="0px" y="0px"
	 viewBox="0 0 792 612" style="enable-background:new 0 0 792 612;" xml:space="preserve">
<g>
	<path d="M184.8,164c-6.4,10.5-23,26.7-16.8,39.4c11.3,23.3,32.4-2.3,40.7-15.5c8.3-13.1,32.2-45,30.2-102.2S200.1,20.6,168.5,50
		s-57.8,78-83.4,184.1s-46.5,192.7,9.5,171.6c56-21.1,73.5-92.1,74.9-102.9c1.4-10.8-4.9-8.7-25.8,22.9s-27.6,39.4-45.2,51
		s-21.6,3.7-14.3-30.3c7.4-34.1,49.6-210.9,88.6-258.3S221.9,103.2,184.8,164z"/>
	<path d="M127.1,289.3c-9.7,6-16.3,16-2.3,15s59.8-33,72.2-38.7c12.4-5.7-9.2,18.8-34.2,105C140.5,447.2,133,525,144,569.5
		c10.9,44.5,23.2-84.4,28.9-125.4c9.4-68.7,55.4-180.8,62.8-200.4c9.5-25.3,7.5-40.6-17.3-24.2S180.1,256.4,127.1,289.3z"/>
	<path d="M328.8,64c-4.7,16.5-90.8,195.8-102.7,245.1s2.6,34.4,9.6,18.4s34.8-79.6,48.4-93.9c13.7-14.4,8.9-5.2,0.6,22.6
		c-8.3,27.7-40.7,127.3-38.5,160.9c2.1,33.6,13.9,29.7,19.6-2.5s27.5-116.3,43.2-151.8s26.3-74.6-3-66
		c-29.3,8.5,26.8-87.3,33.7-98.9c6.9-11.6,16.4-30,6.3-42.5C336.1,42.7,331.2,55.6,328.8,64z"/>
	<path d="M333.4,336.2c4.8,12.8,35-4.7,78.9-75.3c43.9-70.5,44.1-79.5,16.7-77.9s-70.4,52.1-105.4,109.3
		c-35,57.2-38.9,116.6-20,128.8c18.5,11.9,61.6-15,78.2-56c13.7-33.8-5.1-32.9-30.8,11.1c-11.7,20.1-39.6,41-40.7,31.3
		C307,378.1,329.9,327,333.4,336.2z M413.1,213.9c31.9-19.1-38.8,83.5-64.1,88.3C340.4,303.9,376.8,235.7,413.1,213.9z"/>
	<path d="M681.6,116.3c-24.8,7.1-70.8,16.1-119.1,24.6c-15.7,43.5-34.7,97.1-46.2,128.5c-20.6,56.6-29.4,116.5-41.3,114
		c-11.9-2.5,10.4-77.4,25.2-130.8c7.1-25.8,22.9-68.4,38.2-107.4c-10.7,1.8-21.3,3.6-31.7,5.3c-21.8,56-58.3,178.4-64.2,197.9
		c-7.1,23.6-31.3,74-22.1,9.7c6.7-46.6,43.1-146.2,64.5-204.1c-42.5,6.8-77.8,12-89.9,13.7c-31.9,4.3-34.4-1.7-37.7-10.2
		c-5.7-14.8,4.6-8.7,48.9-10.2c14.8-0.5,47.4-4.7,85.2-10.7c4.7-12.7,7.5-21.8,8.9-25.2c10.3-25.9,24.5-37.4,18.5,4.5
		c-0.3,2.1-3.1,13.9-4.6,17c10.3-1.7,20.8-3.5,31.3-5.4c13.6-34.4,25.6-63,28.7-70.2c10.6-24.1,19.4,3,13.9,15
		c-2,4.4-9.4,24.5-19,50.9c52.5-9.8,98.5-23.4,112.2-27.1C705.1,89.5,743.3,98.6,681.6,116.3z"/>
	<path d="M592,251c-6.7,3.8-14.1,10-7.9,14c6.2,4,18.5,0.4,29-11.2c11.3-12.5,26.5-53.1,9.1-65.9c-17.4-12.9-43.5-5.3-75.6,66.9
		c-32.1,72.2-31.5,111.3-23.3,132c8.2,20.7,36.4,10.3,65.2-15.1c29.4-25.8,48.4-74.9,57.5-106.1c9.1-31.2,6-51.2-4.3-64.5
		c-10.2-13.3,6.5,19.2-13.9,70.3c-14.5,36.2-37.4,89.5-78.2,101.1c-40.8,11.6,18.4-123.5,27.8-138.7s32.6-40.2,32.4-18.4
		C609.5,237.2,600.6,246.1,592,251z"/>
	<g>
		<path d="M190.4,471.9l29.9-3.7l1.1,9.1l-20.1,2.5l1.1,9.1l18.6-2.3l1.1,9.1l-18.6,2.3l2.1,17.4l-9.8,1.2L190.4,471.9z"/>
		<path d="M227.3,467.4l9.8-1.2l5.5,44.6l-9.8,1.2L227.3,467.4z"/>
		<path d="M246.5,465l9.8-1.2l4.4,35.6l18.2-2.2l1.1,9.1l-28,3.5L246.5,465z"/>
		<path d="M279.9,460.9l14.9-1.8l13.9,27.9l0.1,0l6.7-30.4l14.8-1.8l5.5,44.6l-9.8,1.2l-4.2-34.2l-0.1,0l-7.5,35.7l-7.5,0.9
			L293.4,470l-2.3,0l4.2,34.2l-9.8,1.2L279.9,460.9z"/>
		<path d="M381.5,459.4c-0.9-0.9-2.1-1.5-3.5-1.8c-1.4-0.3-2.7-0.4-4-0.2c-0.7,0.1-1.4,0.3-2.2,0.5c-0.7,0.3-1.4,0.6-2,1.1
			c-0.6,0.4-1.1,1-1.5,1.6c-0.3,0.6-0.5,1.4-0.4,2.2c0.2,1.3,0.8,2.3,1.9,2.9c1.1,0.6,2.4,1,4,1.4c1.6,0.3,3.3,0.6,5.1,0.9
			c1.8,0.3,3.6,0.8,5.2,1.5c1.6,0.7,3.1,1.8,4.3,3.2c1.2,1.4,2,3.4,2.3,6.1c0.3,2.5,0.1,4.7-0.6,6.7c-0.7,2-1.8,3.7-3.2,5.1
			c-1.4,1.4-3.1,2.5-5.1,3.4c-2,0.8-4.2,1.4-6.5,1.7c-2.9,0.4-5.6,0.3-8.2-0.3c-2.6-0.6-5.1-1.7-7.5-3.4l6-8.6
			c1.2,1.2,2.6,2.1,4.2,2.6c1.6,0.5,3.3,0.7,4.9,0.5c0.8-0.1,1.6-0.3,2.4-0.6c0.8-0.3,1.5-0.7,2.1-1.1c0.6-0.5,1.1-1,1.4-1.6
			c0.3-0.6,0.4-1.4,0.3-2.2c-0.2-1.3-0.8-2.3-1.9-3c-1.1-0.6-2.5-1.2-4.1-1.5c-1.6-0.4-3.4-0.7-5.2-1c-1.9-0.3-3.6-0.8-5.3-1.6
			c-1.7-0.7-3.1-1.8-4.3-3.2c-1.2-1.4-2-3.3-2.3-5.8c-0.3-2.4-0.1-4.6,0.6-6.5c0.7-1.9,1.8-3.6,3.2-5c1.4-1.4,3.1-2.6,5.1-3.4
			c2-0.9,4.1-1.4,6.3-1.7c2.5-0.3,5-0.3,7.4,0.2c2.4,0.4,4.7,1.4,6.8,2.8L381.5,459.4z"/>
		<path d="M424.9,454.7c-1.1-1.1-2.4-1.8-3.9-2.3c-1.5-0.5-3.2-0.6-5-0.3c-1.9,0.2-3.5,0.8-5,1.7c-1.5,0.9-2.7,2.1-3.7,3.5
			c-1,1.4-1.7,3.1-2.1,4.9c-0.4,1.8-0.5,3.8-0.3,5.9c0.3,2.1,0.8,4,1.7,5.6s1.9,3.1,3.2,4.2c1.3,1.1,2.7,2,4.4,2.5
			c1.6,0.5,3.3,0.7,5.1,0.5c2-0.2,3.8-0.9,5.2-1.9c1.5-1,2.6-2.4,3.4-4l8.9,5.1c-1.6,2.9-3.7,5.1-6.5,6.7c-2.7,1.6-5.7,2.6-8.7,3
			c-3.5,0.4-6.8,0.3-9.8-0.4c-3.1-0.7-5.8-2-8.2-3.8c-2.4-1.8-4.4-4-5.9-6.8c-1.6-2.8-2.6-5.9-3-9.5c-0.4-3.6-0.2-6.9,0.6-9.9
			c0.8-3,2.2-5.7,4.1-8c1.9-2.3,4.2-4.2,7-5.6c2.8-1.5,6-2.4,9.4-2.8c1.3-0.2,2.6-0.2,4-0.1c1.4,0.1,2.8,0.3,4.2,0.6
			c1.4,0.3,2.7,0.9,4.1,1.5c1.3,0.7,2.5,1.6,3.7,2.7L424.9,454.7z"/>
		<path d="M437.5,441.4l9.8-1.2l2.1,16.6l19.1-2.4l-2.1-16.6l9.8-1.2l5.5,44.6l-9.8,1.2l-2.4-19.3l-19.1,2.4l2.4,19.3L443,486
			L437.5,441.4z"/>
		<path d="M485.7,458.1c-0.4-3.6-0.2-6.9,0.6-9.9c0.8-3,2.2-5.7,4.1-8c1.9-2.3,4.2-4.2,7-5.6c2.8-1.5,6-2.4,9.4-2.8
			c3.5-0.4,6.8-0.3,9.8,0.4c3.1,0.7,5.8,2,8.2,3.8c2.4,1.8,4.4,4,5.9,6.8c1.6,2.8,2.6,5.9,3,9.5c0.4,3.6,0.2,6.9-0.6,9.9
			c-0.8,3-2.2,5.7-4.1,8c-1.9,2.3-4.2,4.2-7,5.6c-2.8,1.5-6,2.4-9.4,2.8c-3.5,0.4-6.8,0.3-9.8-0.4c-3.1-0.7-5.8-2-8.2-3.8
			c-2.4-1.8-4.4-4-5.9-6.8C487.1,464.8,486.1,461.7,485.7,458.1z M495.9,456.8c0.3,2.1,0.8,4,1.7,5.6c0.9,1.7,2,3.1,3.4,4.2
			c1.4,1.1,3,1.9,4.8,2.5c1.8,0.5,3.7,0.6,5.8,0.4c2.1-0.3,4-0.8,5.6-1.8c1.6-0.9,2.9-2.1,4-3.5c1.1-1.4,1.8-3.1,2.2-4.9
			c0.4-1.8,0.5-3.8,0.3-5.9c-0.3-2.1-0.8-3.9-1.7-5.6c-0.9-1.7-2-3.1-3.4-4.2c-1.4-1.1-3-1.9-4.8-2.5c-1.8-0.5-3.7-0.6-5.8-0.4
			c-2.1,0.3-4,0.9-5.6,1.8c-1.6,0.9-3,2.1-4,3.5c-1.1,1.4-1.8,3.1-2.2,4.9C495.7,452.8,495.6,454.8,495.9,456.8z"/>
		<path d="M538.1,451.6c-0.4-3.6-0.2-6.9,0.6-9.9c0.8-3,2.2-5.7,4.1-8c1.9-2.3,4.2-4.2,7-5.6c2.8-1.5,6-2.4,9.4-2.8
			c3.5-0.4,6.8-0.3,9.8,0.4c3.1,0.7,5.8,2,8.2,3.8s4.4,4,5.9,6.8c1.6,2.8,2.6,5.9,3,9.5c0.4,3.6,0.2,6.9-0.6,9.9
			c-0.8,3-2.2,5.7-4.1,8c-1.9,2.3-4.2,4.2-7,5.6c-2.8,1.5-6,2.4-9.4,2.8c-3.5,0.4-6.8,0.3-9.8-0.4c-3.1-0.7-5.8-2-8.2-3.8
			c-2.4-1.8-4.4-4-5.9-6.8C539.6,458.4,538.6,455.2,538.1,451.6z M548.3,450.4c0.3,2.1,0.8,4,1.7,5.6c0.9,1.7,2,3.1,3.4,4.2
			c1.4,1.1,3,1.9,4.8,2.5c1.8,0.5,3.7,0.6,5.8,0.4c2.1-0.3,4-0.8,5.6-1.8c1.6-0.9,2.9-2.1,4-3.5c1.1-1.4,1.8-3.1,2.2-4.9
			c0.4-1.8,0.5-3.8,0.3-5.9c-0.3-2.1-0.8-3.9-1.7-5.6c-0.9-1.7-2-3.1-3.4-4.2c-1.4-1.1-3-1.9-4.8-2.5c-1.8-0.5-3.7-0.6-5.8-0.4
			c-2.1,0.3-4,0.9-5.6,1.8c-1.6,0.9-3,2.1-4,3.5c-1.1,1.4-1.8,3.1-2.2,4.9C548.2,446.4,548.1,448.3,548.3,450.4z"/>
		<path d="M590.6,422.5l9.8-1.2l4.4,35.6l18.2-2.2l1.1,9.1l-28.1,3.5L590.6,422.5z"/>
	</g>
</g>
</svg>
